<svg xmlns="http://www.w3.org/2000/svg" viewBox="0 0 481.34 164.41"><defs><style>.cls-1{font-size:106px;letter-spacing:0.05em;}.cls-1,.cls-2{font-family:FredokaOne-Regular, Fredoka One;}.cls-2{font-size:49px;letter-spacing:0.05em;}.cls-3{letter-spacing:0.04em;}</style></defs><title>Cosmos</title><g id="Livello_2" data-name="Livello 2"><g id="Livello_1-2" data-name="Livello 1"><text class="cls-1" transform="translate(0 91.85)">COSMOS</text><text class="cls-2" transform="translate(208 152.85)">g<tspan class="cls-3" x="30.92" y="0">e</tspan><tspan x="60.76" y="0" xml:space="preserve">t in l  ne</tspan></text><path d="M399.78,116.87l-.52.1a3.51,3.51,0,0,0-1.83,1,3.61,3.61,0,0,0-1.15,2.8,3.91,3.91,0,0,0,4,4,5.28,5.28,0,0,0,1-.09,4,4,0,0,0,2.88-2.88,5.38,5.38,0,0,0,0-2,4,4,0,0,0-2.78-2.85A5.35,5.35,0,0,0,399.78,116.87Z"/><path d="M405.39,118l-.51.1c-.2,0-.37.11-.37.14a2.07,2.07,0,0,0,.17.4,5,5,0,0,1,.41,3.3,7.54,7.54,0,0,1-.37,1,5.65,5.65,0,0,1-1.22,1.61.62.62,0,0,0-.25.31c0,.23.83.7,1.58.9a5.54,5.54,0,0,0,2,0,3.9,3.9,0,0,0,2.8-2.77,5.45,5.45,0,0,0,0-2.13,4,4,0,0,0-2.69-2.73A5.32,5.32,0,0,0,405.39,118Z"/><path d="M397.33,126.2a12.1,12.1,0,0,0-1.92.61,2.8,2.8,0,0,0-1.34,1.93c0,.22-.07,2.1-.07,4.73,0,5,0,4.86.53,5.4a1.89,1.89,0,0,0,1.38.52c.28,0,.33,0,.36.16s.26,2.76.53,5.94.51,5.87.54,6a1.67,1.67,0,0,0,1.16,1.26,12.68,12.68,0,0,0,3.48,0,1.66,1.66,0,0,0,1.15-1.26c0-.12.27-2.81.54-6s.51-5.85.53-5.94.08-.16.37-.16a1.9,1.9,0,0,0,1.38-.52c.53-.54.52-.44.52-5.4,0-2.66,0-4.51-.07-4.74a3.13,3.13,0,0,0-.65-1.36c-.45-.52-.86-.7-2.65-1.15-.89-.23-1.71-.42-1.8-.42s-.32.15-.61.43l-.45.43-.45-.43c-.38-.36-.49-.43-.69-.43S398.18,126,397.33,126.2Z"/><path d="M406.76,127a4.45,4.45,0,0,0,.24.52c.46.87.46.78.46,6,0,4.44,0,4.69-.14,5.06a2.73,2.73,0,0,1-.92,1.31,3.2,3.2,0,0,1-1.21.56,51.14,51.14,0,0,0-.53,5.34c-.24,2.95-.47,5.54-.5,5.77a3.53,3.53,0,0,1-.28.85,4.88,4.88,0,0,0-.21.48s1.14,0,2.52,0h2.52l.05-.16c0-.08.27-2.85.55-6.15s.52-6,.52-6a1.73,1.73,0,0,1,.35,0,1.9,1.9,0,0,0,1.38-.52c.53-.53.52-.44.52-5.4,0-2.65,0-4.5-.07-4.74a3,3,0,0,0-.66-1.36c-.44-.51-.85-.7-2.64-1.15C407.11,126.93,406.76,126.86,406.76,127Z"/></g></g></svg>